<svg xmlns="http://www.w3.org/2000/svg" viewBox="0 0 512.001 512.001" xmlns:v="https://vecta.io/nano"><path d="M444.169 196.857a49.13 49.13 0 0 0-12.443 1.597C411.792 124.239 346.99 70.463 270.237 64.5c5.136-23.416 26.027-40.998 50.955-40.998 6.489 0 11.751-5.262 11.751-11.751S327.68 0 321.191 0c-29.892 0-55.784 17.426-68.074 42.65-7.254-5.82-16.451-9.313-26.453-9.313-6.489 0-11.751 5.262-11.751 11.751s5.262 11.751 11.751 11.751c6.201 0 11.695 3.024 15.132 7.658-76.772 5.954-141.582 59.736-161.507 133.957-4.034-1.056-8.213-1.598-12.455-1.598-27.053 0-49.061 22.009-49.061 49.061s22.009 49.061 49.061 49.061c4.245 0 8.423-.542 12.455-1.596 13.273 49.442 46.457 89.811 89.829 113.021-43.531 9.031-76.348 47.676-76.348 93.845 0 6.489 5.262 11.751 11.751 11.751h227.527c6.489 0 11.751-5.262 11.751-11.751s-5.262-11.751-11.751-11.751H118.226c5.63-34.319 35.498-60.589 71.386-60.589h8.558c5.463 26.93 29.318 47.263 57.836 47.263s52.373-20.333 57.836-47.263h8.558c19.323 0 37.489 7.524 51.152 21.189s21.189 31.831 21.189 51.151c0 6.489 5.262 11.751 11.751 11.751s11.751-5.262 11.751-11.751c0-25.598-9.969-49.667-28.073-67.771-13.414-13.413-30.105-22.347-48.266-26.083 43.362-23.211 76.542-63.577 89.817-113.009a49.16 49.16 0 0 0 12.443 1.594c27.052 0 49.061-22.009 49.061-49.061s-22.004-49.061-49.056-49.061zM75.65 270.251c-2.502.801-5.129 1.226-7.815 1.226-14.094 0-25.559-11.466-25.559-25.559s11.466-25.559 25.559-25.559c2.68 0 5.309.424 7.815 1.228-1.074 8.026-1.622 16.174-1.622 24.331a183.84 183.84 0 0 0 1.622 24.333zm180.357 181.418c-15.463 0-28.642-9.939-33.505-23.761h67.009c-4.86 13.823-18.04 23.761-33.504 23.761zm155.87-176.987l-.006.035c-.006.028-.009.058-.015.086-13.822 75.097-79.367 129.604-155.848 129.604-76.492 0-142.037-54.512-155.853-129.625-.004-.02-.007-.041-.011-.061s-.008-.048-.013-.072c-1.725-9.383-2.602-19.049-2.602-28.731s.877-19.352 2.605-28.747c.004-.019.006-.036.009-.055l.012-.07c13.815-75.097 79.358-129.604 155.851-129.604 76.479 0 142.024 54.502 155.851 129.594.003.019.006.032.008.045.005.023.008.047.012.072a159.47 159.47 0 0 1 2.606 28.768c0 9.681-.878 19.355-2.606 28.761zm32.292-3.205a25.6 25.6 0 0 1-7.803-1.221 183.88 183.88 0 0 0 1.622-24.338c0-8.153-.548-16.302-1.622-24.333 2.504-.801 5.128-1.226 7.803-1.226 14.093 0 25.559 11.466 25.559 25.559s-11.466 25.559-25.559 25.559zm-149.947 9.409a11.76 11.76 0 0 0-16.102 4.116c-3.521 5.94-9.53 10.256-16.488 11.842-7.016 1.598-14.059.36-19.851-3.5-3.203-2.127-5.937-5.01-7.907-8.338-3.306-5.584-10.509-7.43-16.098-4.125a11.75 11.75 0 0 0-4.125 16.098 49.53 49.53 0 0 0 15.113 15.934c7.974 5.312 17.435 8.087 27.037 8.087 3.689 0 7.399-.41 11.052-1.243 13.215-3.012 24.69-11.312 31.484-22.773 3.309-5.578 1.467-12.788-4.115-16.098zm-117.17-86.557c-6.489 0-11.751 5.262-11.751 11.751v26.065c0 6.489 5.262 11.751 11.751 11.751s11.751-5.262 11.751-11.751V206.08c0-6.489-5.261-11.751-11.751-11.751zm157.913 0c-6.489 0-11.751 5.262-11.751 11.751v26.065c0 6.489 5.262 11.751 11.751 11.751s11.751-5.262 11.751-11.751V206.08c0-6.489-5.262-11.751-11.751-11.751zm36.08 294.169h-4.897c-6.489 0-11.751 5.262-11.751 11.751S359.659 512 366.148 512h4.897c6.489 0 11.751-5.262 11.751-11.751s-5.262-11.751-11.751-11.751z"/></svg>