<svg xmlns="http://www.w3.org/2000/svg" viewBox="0 0 466.971 466.971" xmlns:v="https://vecta.io/nano"><path d="M398.585 68.386C354.485 24.287 295.852 0 233.485 0s-121 24.287-165.099 68.386S0 171.119 0 233.486s24.287 121 68.386 165.099 102.733 68.386 165.099 68.386 121-24.287 165.1-68.386 68.386-102.733 68.386-165.099-24.286-121-68.386-165.1zM104.634 386.252l-10.128-13.927a32.13 32.13 0 0 1-3.016-32.727l9.431-19.775c5.71-11.972 1.747-26.048-8.918-33.934-8.463-6.258-11.116-17.902-6.156-27.218 11.877-22.308 20.939-47.148 26.935-73.832 6.096-27.13 21.176-51.806 42.46-69.481 22.029-18.293 48.704-27.962 77.14-27.962 53.889 0 72.169 28.704 77.106 39.394.784 1.697 2.116 6.425 2.315 7.699 1.079 6.894 1.732 16.021.065 20.742-.979 2.772.327 5.946 3.048 7.059a5.5 5.5 0 0 0 2.088.413c2.247 0 4.357-1.388 5.169-3.622 2.469-6.79 1.803-16.795.866-23.759 6.572 1.996 12.237 6.324 15.786 12.267 11.333 18.991 17.323 40.786 17.323 63.028v1.145c0 4.116-.098 8.254-.271 12.374h0c-4.253-.932-8.375-2.412-12.196-4.498a110.29 110.29 0 0 1-38.286-34.695c1.994-1.741 3.548-4.026 4.408-6.708.961-2.998-.588-6.359-3.61-7.242a5.5 5.5 0 0 0-6.827 3.761 4.06 4.06 0 0 1-4.749 2.79l-38.772-8.999-.268-.061c-6.852-1.52-13.881-.082-19.681 4.049-5.457 3.888-9.032 9.892-10.245 16.482l-1.927 10.475c-2.706 14.712-16.476 24.957-31.344 23.334l-28.631-3.134a29.77 29.77 0 0 0-23.096 7.422c-7.75 6.947-11.424 17.601-9.292 28.082 1.347 6.62 5.117 12.501 10.309 16.823l.326.272a30.55 30.55 0 0 1 8.485 35.622l-.377.871c-9.67 22.32-10.789 47.33-3.15 70.421l4.619 13.975c5.087 15.399 5.504 32.164 1.297 47.797-17.498-6.792-34.1-15.831-49.464-26.95a22.3 22.3 0 0 0 4.924-9.646c1.452-6.294.105-12.902-3.696-18.127zm254.354-19.679c.521 9.297 4.733 17.718 11.86 23.711l10.852 9.124c-2.502 2.241-5.043 4.426-7.629 6.542-15.868-26.824-39.325-48.774-67.102-62.839 17.361-16.236 30.958-38.072 38.924-63.25a29.08 29.08 0 0 0 1.718.058c2.985 0 5.92-.474 8.729-1.37l16.237 39.097a22.44 22.44 0 0 1-4.451 24.041c-6.414 6.75-9.659 15.589-9.138 24.886zm-125.505 6.898c16.146 0 31.556-3.874 45.637-10.877-1.792 23.657-21.603 42.361-45.715 42.361-24.091 0-43.888-18.672-45.71-42.299 14.3 7.094 29.77 10.815 45.788 10.815zm0-11c-29.117 0-56.354-13.842-76.979-39.039a88.11 88.11 0 0 1 3.696-10.278l.376-.869c7.28-16.804 2.537-36.726-11.536-48.445l-.731-.608c-4.16-3.464-6.545-8.555-6.545-13.967 0-5.32 2.272-10.409 6.233-13.96a18.79 18.79 0 0 1 14.556-4.678l28.632 3.134c20.574 2.248 39.616-11.928 43.359-32.279l2.021-10.989c.706-3.835 2.884-7.134 6.133-9.288 3.142-2.082 6.871-2.787 10.491-1.982l38.94 9.037c.837.194 1.673.3 2.504.351a121.29 121.29 0 0 0 48.112 42.939c-1.492 72.507-49.932 130.921-109.262 130.921zm-79.809-25.564c2 2.152 4.044 4.224 6.14 6.196-2.307 1.169-4.59 2.388-6.84 3.667.05-3.297.278-6.59.7-9.863zm211.705-83.576a17.87 17.87 0 0 1-6.924 11.902c-2.793 2.128-6.072 3.357-9.492 3.62 2.603-10.753 4.207-22.016 4.674-33.636 3.298 1.108 6.16 3.014 8.268 5.573 2.904 3.529 4.106 7.866 3.474 12.541zM163.25 444.709c5.015-17.944 4.624-37.261-1.229-54.981l-4.621-13.979c-1.799-5.438-3.035-10.996-3.744-16.597 4.928-3.044 10.048-5.814 15.287-8.268a116.39 116.39 0 0 0 7.675 5.445 56.01 56.01 0 0 0-.073 2.773c0 31.349 25.508 56.853 56.861 56.853s56.862-25.504 56.862-56.853c0-.952-.026-1.897-.072-2.831a117.74 117.74 0 0 0 7.625-5.39c28.166 13.182 51.901 34.962 67.488 61.883-37.977 28.048-83.733 43.207-131.822 43.207-24.238 0-47.882-3.852-70.237-11.262zm227.557-53.903l-1.039 1.014-11.841-9.955c-4.782-4.02-7.607-9.669-7.957-15.906s1.828-12.167 6.13-16.696c9.095-9.574 11.7-23.64 6.635-35.835l-16.689-40.186a28.78 28.78 0 0 0 10.234-18.437c1.037-7.677-1.053-15.136-5.885-21.005-1.145-1.39-2.419-2.66-3.803-3.802.362-6.044.556-12.163.556-18.235v-1.145c0-24.227-6.528-47.971-18.878-68.667-6.059-10.146-16.492-16.939-28.229-18.512-2.445-5.686-8.027-15.92-19.319-25.452-16.97-14.326-39.963-21.59-68.34-21.59-31.034 0-60.139 10.547-84.167 30.5-23.144 19.219-39.54 46.043-46.166 75.532-5.78 25.722-14.498 49.634-25.912 71.073-7.584 14.246-3.417 32.087 9.693 41.499a16.15 16.15 0 0 1 5.162 20.087l-9.432 19.776a43.09 43.09 0 0 0 4.048 43.931l10.129 13.927c1.926 2.648 2.609 5.998 1.874 9.189-.478 2.073-1.529 3.936-2.995 5.415-6.401-5.133-12.567-10.634-18.453-16.52C34.143 348.784 11 292.913 11 233.486S34.143 118.187 76.165 76.165 174.058 11 233.485 11s115.299 23.143 157.321 65.165 65.165 97.893 65.165 157.321-23.142 115.298-65.164 157.32zm-146.962-71.568a14.89 14.89 0 0 1-10.364 4.155c-3.887 0-7.565-1.476-10.355-4.155-2.19-2.102-5.672-2.033-7.777.159a5.5 5.5 0 0 0 .159 7.777 25.83 25.83 0 0 0 17.974 7.219 25.84 25.84 0 0 0 17.982-7.219c2.191-2.104 2.262-5.585.159-7.777s-5.586-2.262-7.778-.159zm-51.01-68.74a19.87 19.87 0 0 0-21.121-5.196 8.92 8.92 0 0 1-8.609-1.542 5.5 5.5 0 0 0-7.023 8.467 19.98 19.98 0 0 0 19.043 3.527c-.602 2.26-.489 4.727.503 7.043 2.355 5.499 8.722 8.047 14.221 5.692s8.047-8.722 5.692-14.22c-.638-1.49-1.577-2.754-2.706-3.771zm118.054 1.728a5.5 5.5 0 0 0-7.023-8.467 8.92 8.92 0 0 1-8.609 1.542c-7.493-2.634-15.776-.539-21.122 5.197a10.78 10.78 0 0 0-2.706 3.77c-2.355 5.499.193 11.865 5.692 14.22s11.866-.193 14.221-5.692c.992-2.316 1.105-4.784.503-7.043a19.98 19.98 0 0 0 19.044-3.527z"/></svg>