<svg xmlns="http://www.w3.org/2000/svg" width="293.9" height="74.702" xmlns:v="https://vecta.io/nano"><path d="M0 46.901v-43.4h9.5v41.9a39.482 39.482 0 0 0 .4 5.81q.881 5.908 3.7 9.69a13.242 13.242 0 0 0 8.456 5.156 20.418 20.418 0 0 0 3.844.344 21.386 21.386 0 0 0 5.004-.549 13.455 13.455 0 0 0 7.696-4.801 17.382 17.382 0 0 0 2.796-5.395q.79-2.419 1.135-5.362a42.042 42.042 0 0 0 .269-4.893v-41.9H52v43a39.957 39.957 0 0 1-.622 7.231 28.663 28.663 0 0 1-2.628 7.919q-3.25 6.35-9.1 9.7a25.023 25.023 0 0 1-8.561 2.954 32.816 32.816 0 0 1-5.189.396 32.706 32.706 0 0 1-8.005-.925A22.492 22.492 0 0 1 6.9 67.501Q.788 61.123.09 49.882A48.096 48.096 0 0 1 0 46.901zm76.5 26.6h-9v-52h8.7v8.7q2.8-4.2 7.15-7.05a17.316 17.316 0 0 1 7.106-2.625 22.629 22.629 0 0 1 3.244-.225 23.225 23.225 0 0 1 5.065.517q5.094 1.139 8.085 4.783 4.125 5.025 4.338 13.108a33.764 33.764 0 0 1 .012.892v33.9h-9v-32.9a19.265 19.265 0 0 0-.342-3.741q-.439-2.215-1.439-3.963a10.966 10.966 0 0 0-.869-1.296 8.579 8.579 0 0 0-6.277-3.354 12.061 12.061 0 0 0-1.073-.046 13.122 13.122 0 0 0-6.849 1.964 17.353 17.353 0 0 0-1.851 1.286q-4.1 3.25-7 7.65v34.4zm217.4-4.9l-6.8 5.8-17.5-21.7-17.3 21.5-6.4-5.6 18.5-21.5-17.8-20.6 7-6.1 16.1 20.8 15.8-20.4 6.7 5.7-17.3 20.2 19 21.9zm-146.7.7l3.8-7.5a18.557 18.557 0 0 0 3.144 2.125q1.554.845 3.406 1.525a24.073 24.073 0 0 0 7.611 1.437 27.464 27.464 0 0 0 .839.013q5.392 0 8.235-1.716a7.738 7.738 0 0 0 .215-.134q2.85-1.85 2.85-4.75a7.123 7.123 0 0 0-.314-2.148 6.212 6.212 0 0 0-.736-1.552 6.384 6.384 0 0 0-.929-1.094q-1.014-.972-2.687-1.925a22.3 22.3 0 0 0-.234-.131 28.462 28.462 0 0 0-1.994-.994q-2.116-.961-5.105-2.011a103.602 103.602 0 0 0-1.001-.345 46.616 46.616 0 0 1-4.398-1.743q-2.114-.974-3.79-2.062a19.335 19.335 0 0 1-2.762-2.145 11.324 11.324 0 0 1-3.294-5.997 16.794 16.794 0 0 1-.356-3.553q0-6 5.25-10.15 4.404-3.482 11.658-4.043a37.527 37.527 0 0 1 2.892-.107 40.794 40.794 0 0 1 4.446.23q2.308.254 4.324.785a25.234 25.234 0 0 1 .13.035q3.9 1.05 7 2.65l-2.5 7.4q-2.7-1.6-6.15-2.6a25.024 25.024 0 0 0-4.483-.848 31.837 31.837 0 0 0-3.167-.152 20.632 20.632 0 0 0-2.937.195q-3.086.445-4.963 1.905a9.322 9.322 0 0 0-1.358 1.273q-.702.819-1.037 1.692a4.529 4.529 0 0 0-.305 1.635 4.921 4.921 0 0 0 1.495 3.551 7.082 7.082 0 0 0 .605.549 9.88 9.88 0 0 0 1.3.868q2.274 1.302 6.698 2.765a84.459 84.459 0 0 0 .202.067 67.753 67.753 0 0 1 5.062 1.898q5.927 2.519 8.738 5.402 3.9 4 3.9 10 0 6.748-5.251 10.755a16.618 16.618 0 0 1-.399.295q-4.74 3.397-12.188 3.945a40.423 40.423 0 0 1-2.962.105q-5.9 0-10.65-1.5a30.883 30.883 0 0 1-3.84-1.485q-1.981-.931-3.562-2.08a18.229 18.229 0 0 1-.448-.335zm93.4-18.1h-36.4a24.088 24.088 0 0 0 1.139 5.025q1.336 3.812 3.961 6.375 4.2 4.1 11.1 4.1 4.5 0 8.1-.95 3.6-.95 6.9-2.45l2.1 7.7a40.77 40.77 0 0 1-4.335 1.626 51.863 51.863 0 0 1-3.765 1.024 38.914 38.914 0 0 1-5.092.819 52.025 52.025 0 0 1-5.008.231 28.318 28.318 0 0 1-7.746-1.006 21.108 21.108 0 0 1-10.004-6.144 23.521 23.521 0 0 1-5.205-9.54Q195 53.346 195 47.501a35.359 35.359 0 0 1 .833-7.822 28.84 28.84 0 0 1 2.117-6.128 24.642 24.642 0 0 1 5.016-7.082 22.887 22.887 0 0 1 3.234-2.618 21.048 21.048 0 0 1 10.259-3.472 26.205 26.205 0 0 1 2.041-.078q7.5 0 12.45 3.25 4.95 3.25 7.45 8.75a28.185 28.185 0 0 1 2.426 9.863 33.434 33.434 0 0 1 .074 2.237 75.204 75.204 0 0 1-.291 6.696 69.426 69.426 0 0 1-.009.104zm-104.9 22.3h-9v-52h9v52zm68.4-29.6h28.5a24.355 24.355 0 0 0-.404-4.586q-.496-2.584-1.6-4.607a12.422 12.422 0 0 0-1.796-2.507 12.488 12.488 0 0 0-6.961-3.776 18.395 18.395 0 0 0-3.539-.324 13.58 13.58 0 0 0-5.112.935 12.524 12.524 0 0 0-4.488 3.115q-3.8 4.05-4.6 11.75zm-77.263-33.112a5.973 5.973 0 0 0 4.363 1.812 8.175 8.175 0 0 0 1.496-.131 5.647 5.647 0 0 0 3.104-1.619q1.7-1.75 1.7-4.55a7.26 7.26 0 0 0 0-.081 6.06 6.06 0 0 0-1.85-4.369 7.395 7.395 0 0 0-.058-.058A6.059 6.059 0 0 0 131.2.001a8.264 8.264 0 0 0-1.656.157 5.661 5.661 0 0 0-2.944 1.543 5.588 5.588 0 0 0-1.471 2.632 7.987 7.987 0 0 0-.229 1.968 5.992 5.992 0 0 0 .492 2.418 6.643 6.643 0 0 0 1.358 1.982 7.466 7.466 0 0 0 .087.088z" vector-effect="non-scaling-stroke" fill-rule="evenodd" stroke="#000" stroke-width=".25mm"/></svg>