<svg id="bigF" version="1.1" xmlns="http://www.w3.org/2000/svg" xmlns:xlink="http://www.w3.org/1999/xlink" width="72" height="72" viewBox="0,0, 400,400">
    <g id="svgg">
        <path id="path0" d="M38.800 17.946 C 34.300 18.194,34.150 18.234,31.923 19.742 C 29.298 21.518,29.572 20.691,28.188 31.000 C 26.726 41.883,26.635 43.811,27.189 51.995 C 27.587 57.876,27.585 61.041,27.177 67.965 C 26.724 75.649,26.745 77.459,27.366 84.400 C 28.882 101.324,28.949 101.382,47.400 101.738 C 67.896 102.134,67.720 102.007,68.723 117.200 C 69.266 125.433,69.259 126.830,68.639 133.600 C 67.539 145.592,67.091 162.329,67.387 180.400 C 67.537 189.530,67.808 211.940,67.990 230.200 C 68.177 248.951,68.530 266.011,68.800 269.400 C 69.287 275.516,69.225 277.677,68.241 289.068 C 67.487 297.778,66.502 299.860,62.208 301.817 L 59.400 303.096 47.266 303.341 C 28.857 303.712,28.707 303.832,27.362 319.321 C 26.873 324.949,26.756 329.204,26.924 335.250 C 27.099 341.536,26.979 345.502,26.418 351.903 C 25.824 358.675,25.749 361.576,26.030 366.853 C 26.930 383.720,27.988 384.901,42.400 385.130 C 50.588 385.260,53.192 385.068,63.795 383.554 C 69.087 382.797,70.239 382.777,85.079 383.177 C 93.709 383.410,105.321 383.601,110.884 383.603 C 120.636 383.606,150.116 384.564,153.400 384.984 C 175.094 387.762,210.765 386.247,215.463 382.348 C 218.219 380.060,219.546 364.777,218.201 350.802 C 217.726 345.857,217.658 341.243,217.866 327.984 C 218.265 302.626,218.231 302.568,202.800 302.041 C 195.916 301.806,182.420 302.350,179.867 302.965 C 178.772 303.230,175.741 302.203,174.242 301.059 C 171.662 299.092,171.005 294.121,170.575 273.352 C 170.235 256.898,170.513 255.551,174.819 252.788 L 176.773 251.534 196.486 251.979 C 207.329 252.223,218.270 252.592,220.800 252.797 C 246.150 254.855,260.794 254.121,263.358 250.666 C 264.468 249.170,264.417 231.004,263.262 216.400 L 262.518 207.000 263.510 197.800 L 264.502 188.600 263.842 179.600 C 263.059 168.910,262.917 168.530,259.753 168.712 C 258.679 168.774,239.440 168.962,217.000 169.130 L 176.200 169.436 174.600 168.560 C 170.824 166.494,170.716 165.608,170.203 132.400 C 170.006 119.658,169.767 113.804,169.364 111.800 C 168.548 107.744,168.621 106.609,169.747 105.871 C 171.943 104.433,193.875 103.799,203.000 104.911 C 205.860 105.260,210.000 105.663,212.200 105.807 C 216.159 106.067,217.621 105.958,231.000 104.401 C 240.170 103.335,259.721 103.237,261.720 104.247 C 264.277 105.540,265.494 106.789,266.812 109.471 L 268.152 112.200 268.413 123.259 L 268.673 134.317 269.780 136.459 C 271.795 140.358,274.296 141.678,280.600 142.167 C 282.140 142.286,285.652 142.580,288.404 142.820 C 292.620 143.187,294.289 143.146,299.004 142.564 C 303.247 142.039,307.162 141.892,315.200 141.954 C 326.050 142.038,334.932 141.434,341.771 140.144 C 345.857 139.374,346.794 138.860,348.606 136.392 L 350.098 134.359 350.480 125.680 C 350.844 117.397,350.812 116.588,349.767 108.000 L 348.673 99.000 349.145 79.800 C 349.802 53.101,349.747 46.490,348.792 37.233 C 346.900 18.898,346.990 18.973,325.772 18.211 C 321.802 18.069,315.442 18.181,310.400 18.484 C 303.283 18.911,298.661 18.905,283.600 18.447 C 267.112 17.946,264.252 17.957,253.200 18.569 C 239.476 19.329,214.919 19.441,200.200 18.811 C 188.727 18.319,149.256 18.310,143.600 18.796 C 127.060 20.220,74.694 20.088,64.400 18.596 C 59.685 17.913,45.787 17.560,38.800 17.946 " stroke="none" fill="#f2f2f3" fill-rule="evenodd"></path>
        <path id="path1" d="M0.000 200.000 L 0.000 400.000 200.000 400.000 L 400.000 400.000 400.000 200.000 L 400.000 0.000 200.000 0.000 L 0.000 0.000 0.000 200.000 M64.400 18.596 C 74.694 20.088,127.060 20.220,143.600 18.796 C 149.256 18.310,188.727 18.319,200.200 18.811 C 214.919 19.441,239.476 19.329,253.200 18.569 C 264.252 17.957,267.112 17.946,283.600 18.447 C 298.661 18.905,303.283 18.911,310.400 18.484 C 325.281 17.591,339.968 18.437,343.368 20.382 C 349.002 23.605,350.219 36.131,349.145 79.800 L 348.673 99.000 349.767 108.000 C 350.812 116.588,350.844 117.397,350.480 125.680 L 350.098 134.359 348.606 136.392 C 346.794 138.860,345.857 139.374,341.771 140.144 C 334.932 141.434,326.050 142.038,315.200 141.954 C 307.162 141.892,303.247 142.039,299.004 142.564 C 294.289 143.146,292.620 143.187,288.404 142.820 C 285.652 142.580,282.140 142.286,280.600 142.167 C 274.296 141.678,271.795 140.358,269.780 136.459 L 268.673 134.317 268.413 123.259 L 268.152 112.200 266.812 109.471 C 265.494 106.789,264.277 105.540,261.720 104.247 C 259.721 103.237,240.170 103.335,231.000 104.401 C 217.621 105.958,216.159 106.067,212.200 105.807 C 210.000 105.663,205.860 105.260,203.000 104.911 C 193.875 103.799,171.943 104.433,169.747 105.871 C 168.621 106.609,168.548 107.744,169.364 111.800 C 169.767 113.804,170.006 119.658,170.203 132.400 C 170.716 165.608,170.824 166.494,174.600 168.560 L 176.200 169.436 217.000 169.130 C 239.440 168.962,258.679 168.774,259.753 168.712 C 262.917 168.530,263.059 168.910,263.842 179.600 L 264.502 188.600 263.510 197.800 L 262.518 207.000 263.262 216.400 C 264.417 231.004,264.468 249.170,263.358 250.666 C 260.794 254.121,246.150 254.855,220.800 252.797 C 218.270 252.592,207.329 252.223,196.486 251.979 L 176.773 251.534 174.819 252.788 C 170.513 255.551,170.235 256.898,170.575 273.352 C 171.005 294.121,171.662 299.092,174.242 301.059 C 175.741 302.203,178.772 303.230,179.867 302.965 C 182.420 302.350,195.916 301.806,202.800 302.041 C 218.231 302.568,218.265 302.626,217.866 327.984 C 217.658 341.243,217.726 345.857,218.201 350.802 C 219.546 364.777,218.219 380.060,215.463 382.348 C 212.275 384.994,196.615 386.831,181.200 386.367 C 170.186 386.036,156.172 385.339,153.400 384.984 C 150.116 384.564,120.636 383.606,110.884 383.603 C 105.321 383.601,93.709 383.410,85.079 383.177 C 70.239 382.777,69.087 382.797,63.795 383.554 C 53.192 385.068,50.588 385.260,42.400 385.130 C 30.387 384.939,27.345 383.039,26.563 375.238 C 25.757 367.183,25.711 359.961,26.418 351.903 C 26.979 345.502,27.099 341.536,26.924 335.250 C 26.756 329.204,26.873 324.949,27.362 319.321 C 28.707 303.832,28.857 303.712,47.266 303.341 L 59.400 303.096 62.208 301.817 C 66.502 299.860,67.487 297.778,68.241 289.068 C 69.225 277.677,69.287 275.516,68.800 269.400 C 68.530 266.011,68.177 248.951,67.990 230.200 C 67.808 211.940,67.537 189.530,67.387 180.400 C 67.091 162.329,67.539 145.592,68.639 133.600 C 69.259 126.830,69.266 125.433,68.723 117.200 C 67.720 102.007,67.896 102.134,47.400 101.738 C 28.949 101.382,28.882 101.324,27.366 84.400 C 26.745 77.459,26.724 75.649,27.177 67.965 C 27.585 61.041,27.587 57.876,27.189 51.995 C 26.635 43.811,26.726 41.883,28.188 31.000 C 29.572 20.691,29.298 21.518,31.923 19.742 C 34.150 18.234,34.300 18.194,38.800 17.946 C 45.787 17.560,59.685 17.913,64.400 18.596 " stroke="none" fill="#544c84" fill-rule="evenodd"></path>
    </g>
</svg>