<svg id="svg" version="1.1" xmlns="http://www.w3.org/2000/svg" xmlns:xlink="http://www.w3.org/1999/xlink" width="400" height="400" viewBox="55, 209, 300,100"><g id="svgg"><path id="path0" d="M66.446 152.407 C 65.320 153.278,64.846 170.059,65.874 172.675 C 66.348 173.882,66.873 174.019,71.556 174.155 C 76.550 174.300,76.979 175.250,76.210 184.444 C 76.013 186.808,75.958 193.155,76.088 198.704 C 76.797 228.922,77.031 227.778,70.130 227.778 C 66.193 227.778,65.759 228.140,65.417 231.706 C 65.023 235.816,65.092 246.753,65.519 247.870 C 66.000 249.131,64.384 249.006,80.741 249.047 C 88.380 249.066,97.963 249.229,102.037 249.410 C 116.871 250.067,116.144 250.637,115.999 238.456 C 115.853 226.237,116.535 227.366,109.307 227.378 C 103.705 227.388,104.013 227.680,103.623 221.976 C 103.027 213.256,102.259 213.745,115.841 214.183 C 129.911 214.637,128.806 215.275,128.261 207.003 C 128.072 204.143,128.049 200.689,128.209 199.327 C 128.370 197.966,128.380 195.769,128.232 194.444 L 127.963 192.037 116.481 191.988 C 102.956 191.929,104.218 192.008,103.884 191.204 C 103.414 190.071,103.063 175.404,103.498 175.076 C 103.713 174.914,107.056 174.825,110.926 174.879 C 114.796 174.933,120.071 174.832,122.647 174.656 C 128.784 174.234,129.030 174.419,129.428 179.723 C 129.835 185.144,130.235 185.305,142.037 184.790 C 151.193 184.390,151.226 184.371,151.197 179.499 C 151.063 156.635,150.817 153.066,149.326 152.356 C 148.384 151.907,67.028 151.958,66.446 152.407 " stroke="none" fill="#f3f3f3" fill-rule="evenodd"></path><path id="path1" d="M58.148 200.185 L 58.148 254.074 111.481 254.074 L 164.815 254.074 164.815 200.185 L 164.815 146.296 111.481 146.296 L 58.148 146.296 58.148 200.185 M149.326 152.356 C 150.817 153.066,151.063 156.635,151.197 179.499 C 151.226 184.371,151.193 184.390,142.037 184.790 C 130.235 185.305,129.835 185.144,129.428 179.723 C 129.030 174.419,128.784 174.234,122.647 174.656 C 120.071 174.832,114.796 174.933,110.926 174.879 C 107.056 174.825,103.713 174.914,103.498 175.076 C 103.063 175.404,103.414 190.071,103.884 191.204 C 104.218 192.008,102.956 191.929,116.481 191.988 L 127.963 192.037 128.232 194.444 C 128.380 195.769,128.370 197.966,128.209 199.327 C 128.049 200.689,128.072 204.143,128.261 207.003 C 128.806 215.275,129.911 214.637,115.841 214.183 C 102.259 213.745,103.027 213.256,103.623 221.976 C 104.013 227.680,103.705 227.388,109.307 227.378 C 116.535 227.366,115.853 226.237,115.999 238.456 C 116.144 250.637,116.871 250.067,102.037 249.410 C 97.963 249.229,88.380 249.066,80.741 249.047 C 64.384 249.006,66.000 249.131,65.519 247.870 C 65.092 246.753,65.023 235.816,65.417 231.706 C 65.759 228.140,66.193 227.778,70.130 227.778 C 77.031 227.778,76.797 228.922,76.088 198.704 C 75.958 193.155,76.013 186.808,76.210 184.444 C 76.979 175.250,76.550 174.300,71.556 174.155 C 66.873 174.019,66.348 173.882,65.874 172.675 C 64.846 170.059,65.320 153.278,66.446 152.407 C 67.028 151.958,148.384 151.907,149.326 152.356 M195.399 190.494 C 193.926 191.966,194.218 194.617,195.926 195.281 C 196.231 195.400,195.690 195.510,194.722 195.526 L 192.963 195.556 192.963 198.059 C 192.963 200.161,193.082 200.637,193.704 201.025 C 194.853 201.743,194.667 205.185,193.479 205.185 C 193.087 205.185,192.963 205.809,192.963 207.778 L 192.963 210.370 198.519 210.370 L 204.074 210.370 204.074 207.866 C 204.074 205.623,203.987 205.323,203.241 204.995 C 202.451 204.649,202.402 204.394,202.303 200.093 L 202.199 195.556 200.637 195.505 C 199.777 195.477,199.407 195.388,199.815 195.306 C 200.584 195.151,201.481 193.662,201.481 192.539 C 201.481 190.149,197.187 188.705,195.399 190.494 M239.270 190.083 C 237.127 191.215,236.985 194.364,239.040 195.195 C 239.614 195.427,239.309 195.515,237.870 195.532 L 235.926 195.556 235.926 198.105 C 235.926 200.323,236.020 200.679,236.650 200.844 C 237.048 200.948,237.483 201.467,237.616 201.998 C 237.961 203.374,237.496 204.861,236.650 205.082 C 236.020 205.247,235.926 205.603,235.926 207.821 L 235.926 210.370 241.481 210.370 L 247.037 210.370 247.037 207.821 C 247.037 205.583,246.947 205.248,246.296 205.078 C 245.605 204.897,245.556 204.573,245.556 200.220 L 245.556 195.556 243.981 195.513 C 243.116 195.489,242.667 195.400,242.984 195.314 C 243.643 195.136,244.815 193.313,244.815 192.464 C 244.815 190.537,241.284 189.021,239.270 190.083 M172.963 193.519 C 172.963 196.201,172.993 196.296,173.849 196.296 C 175.017 196.296,175.185 196.853,175.185 200.714 C 175.185 203.994,174.709 205.185,173.397 205.185 C 173.107 205.185,172.963 206.044,172.963 207.778 L 172.963 210.370 179.444 210.370 L 185.926 210.370 185.926 207.778 L 185.926 205.185 184.889 205.185 C 183.525 205.185,182.963 204.569,182.963 203.074 L 182.963 201.852 185.185 201.852 L 187.407 201.852 187.407 200.556 L 187.407 199.259 185.185 199.259 L 182.963 199.259 182.963 197.778 L 182.963 196.296 184.454 196.296 C 185.814 196.296,185.964 196.394,186.167 197.407 C 186.386 198.503,186.423 198.519,188.750 198.519 L 191.111 198.519 191.111 194.630 L 191.111 190.741 182.037 190.741 L 172.963 190.741 172.963 193.519 M225.926 191.496 C 225.926 193.026,224.512 195.093,222.983 195.798 C 221.062 196.684,220.589 200.741,222.407 200.741 C 223.289 200.741,223.333 200.844,223.333 202.901 C 223.333 209.078,224.563 210.741,229.128 210.741 C 233.308 210.741,234.784 209.320,234.802 205.278 C 234.815 202.657,234.793 202.593,233.889 202.593 C 233.037 202.593,232.963 202.728,232.963 204.271 C 232.963 205.442,232.790 206.015,232.391 206.168 C 231.509 206.507,231.330 206.088,231.173 203.313 L 231.028 200.741 232.921 200.741 L 234.815 200.741 234.815 198.148 L 234.815 195.556 232.963 195.556 L 231.111 195.556 231.111 193.148 L 231.111 190.741 228.519 190.741 C 226.156 190.741,225.926 190.808,225.926 191.496 M265.443 190.977 C 264.614 191.806,265.188 196.296,266.123 196.296 L 267.061 196.296 266.956 200.648 C 266.856 204.843,266.822 205.004,266.019 205.118 C 265.246 205.228,265.185 205.424,265.185 207.804 L 265.185 210.370 275.926 210.370 L 286.667 210.370 286.667 207.804 C 286.667 205.424,286.606 205.228,285.833 205.118 C 285.056 205.008,284.988 204.776,284.815 201.667 C 284.616 198.082,284.196 197.102,282.335 195.875 C 281.004 194.997,276.846 194.932,275.741 195.771 C 275.019 196.318,274.995 196.262,274.815 193.630 L 274.630 190.926 270.165 190.823 C 267.710 190.766,265.585 190.835,265.443 190.977 M208.809 195.862 C 203.971 198.153,202.745 205.033,206.544 208.569 C 210.967 212.686,220.741 210.817,220.741 205.854 C 220.741 204.505,216.542 204.197,216.124 205.516 C 215.668 206.952,213.134 206.796,212.564 205.296 C 211.598 202.753,212.708 198.889,214.406 198.889 C 214.955 198.889,215.251 199.545,214.821 199.811 C 214.140 200.232,214.398 202.436,215.215 203.175 C 218.331 205.995,222.662 200.555,219.811 197.402 C 217.788 195.166,211.993 194.354,208.809 195.862 M251.852 195.849 C 247.676 197.837,246.279 203.012,248.756 207.317 C 251.858 212.706,262.805 211.769,263.931 206.019 L 264.167 204.815 261.713 204.815 C 259.756 204.815,259.259 204.930,259.259 205.382 C 259.259 206.453,256.665 206.822,256.056 205.838 C 254.487 203.298,255.935 198.245,258.005 199.039 C 258.468 199.217,258.457 199.379,257.932 200.181 C 256.185 202.846,260.141 205.147,262.843 203.037 C 264.223 201.960,264.150 198.629,262.716 197.195 C 260.655 195.134,254.863 194.416,251.852 195.849 M292.593 195.417 C 285.240 198.131,284.720 207.396,291.767 210.128 C 300.514 213.518,309.183 206.328,305.080 199.084 C 303.330 195.994,296.479 193.982,292.593 195.417 M308.825 196.405 C 305.902 198.631,306.423 202.764,309.815 204.263 C 310.920 204.752,310.916 204.755,308.981 204.785 L 307.037 204.815 307.037 207.593 L 307.037 210.370 308.867 210.370 C 309.874 210.370,310.794 210.214,310.912 210.022 C 311.040 209.816,311.647 209.891,312.404 210.207 C 315.444 211.478,320.669 210.364,321.966 208.169 C 323.382 205.771,322.234 202.408,319.630 201.320 L 318.333 200.779 320.278 200.760 L 322.222 200.741 322.222 197.963 L 322.222 195.185 320.185 195.185 C 319.065 195.185,318.148 195.348,318.148 195.546 C 318.148 195.781,317.815 195.781,317.198 195.546 C 314.854 194.655,310.543 195.098,308.825 196.405 M317.407 199.815 C 318.374 200.844,318.222 200.912,316.204 200.351 C 315.413 200.131,314.815 199.733,314.815 199.427 C 314.815 198.556,316.455 198.801,317.407 199.815 M297.394 199.614 C 298.356 200.222,298.402 204.931,297.455 205.878 C 295.868 207.466,294.828 206.290,294.820 202.897 C 294.813 199.776,295.754 198.576,297.394 199.614 M277.037 202.988 C 277.037 205.220,277.031 205.234,276.019 205.117 C 275.054 205.006,274.994 204.886,274.889 202.870 L 274.778 200.741 275.907 200.741 L 277.037 200.741 277.037 202.988 M314.167 205.621 C 315.118 206.107,314.956 206.667,313.865 206.667 C 312.696 206.667,311.639 206.130,311.356 205.393 C 311.127 204.797,312.823 204.934,314.167 205.621 " stroke="none" fill="#54548c" fill-rule="none"></path></g></svg>