<svg xmlns="http://www.w3.org/2000/svg" viewBox="0 0 418.321 418.321" xmlns:v="https://vecta.io/nano"><path d="M362.383 251.467c-22.38-3.646-38.804-9.41-38.967-9.468-1.747-.619-3.689-.219-5.048 1.026-2.055 1.567-15.89 8.986-36.342 8.986-23.951 0-47.718-9.771-70.641-29.044C151 172.201 33.845 97.894 32.669 97.15a5 5 0 0 0-7.019 1.75C-17.472 174.639 6.554 208.119 7.707 209.418c8.301 9.351 30.392 31.98 29.678 107.23-.013 1.377.407 2.725 1.352 3.727s2.261 1.572 3.639 1.572h21.151a5 5 0 0 0 5-5v-57.315c0-11.951 2.692-19.954 8.067-23.694 7.482-5.207 17.073-1.329 17.248-1.287 49.496 20.598 84.914 58.082 84.914 58.082 12.919 13.211 37.567 28.957 81.625 28.957 57.96 0 150.183-21.592 154.08-22.512a5 5 0 0 0 3.851-4.738c.6-23.174-28.571-38.521-55.929-42.973zm-303.856 8.165v52.315H47.554c.311-16.275-.789-65.707-23.419-98.335 17.076 3.239 33.322 7.541 48.719 12.885-.652.365-14.327 5.872-14.327 33.135zm201.855 52.058c-40.58 0-62.899-14.111-74.477-25.949 0 0-19.436-21.779-52.04-41.582-35.038-21.28-71.622-34.462-119.088-42.335-1.529-2.942-14.776-33.387 17.003-93.38 22.009 14.096 119.978 77.46 173.171 122.179 24.774 20.828 50.707 31.39 77.076 31.39 19.572 0 34.309-6.123 40.459-9.778 5.487 1.781 19.802 6.092 38.29 9.103 21.518 3.503 44.088 14.643 47.185 29.07-18.965 4.27-97.652 21.282-147.579 21.282z"/></svg>