<svg xmlns="http://www.w3.org/2000/svg" viewBox="0 0 485.049 485.049" xmlns:v="https://vecta.io/nano"><path d="M116.674 16.507l-4.361-.069c-29.572 0-55.64 9.546-75.386 27.607C16.32 62.895 3.587 90.386.107 123.546L0 124.564l.032 1.022c2.489 78.854 8.7 214.407 13.887 263.825 2.56 24.386 11.992 44.666 27.277 58.647 14.699 13.446 34.045 20.553 55.943 20.553a101.16 101.16 0 0 0 3.204-.051c22.358-.706 42.504-9.825 56.726-25.678 14.493-16.155 22.153-38.085 22.153-63.418 0-87.846 13.782-124.824 25.942-157.45 9.101-24.417 17.696-47.479 17.696-85.4 0-34.478-10.358-64.179-29.957-85.894-19.051-21.112-46.125-33.262-76.229-34.213zm-4.361 29.931a108.49 108.49 0 0 1 3.414.054c46.857 1.479 77.135 36.854 77.135 90.121 0 23.813-3.744 40.224-9.217 56.612L131.2 144.03v-33.504h-30v33.504l-68.047 63.831-3.104-82.174c5.574-49.647 36.264-79.249 82.264-79.249zm36.91 333.026c0 34.953-19.558 58.156-49.826 59.111a71.16 71.16 0 0 1-2.257.036c-30.436 0-49.894-19.074-53.385-52.332-2.743-26.135-6.004-80.371-8.809-138.966l81.254-76.221 56.304 52.815c-11.322 31.553-23.281 73.463-23.281 155.557zm335.719-255.917c-3.48-33.161-16.213-60.652-36.82-79.501-19.746-18.061-45.813-27.607-75.386-27.607-1.44 0-2.908.023-4.361.069-30.104.951-57.178 13.101-76.23 34.212-19.599 21.715-29.957 51.417-29.957 85.894 0 37.921 8.596 60.984 17.696 85.4 12.16 32.626 25.942 69.604 25.942 157.45 0 25.333 7.66 47.263 22.153 63.418 14.222 15.853 34.367 24.972 56.726 25.678 1.072.034 2.143.051 3.203.051 21.9 0 41.246-7.107 55.944-20.552 15.285-13.982 24.718-34.262 27.277-58.648 5.187-49.418 11.397-184.971 13.887-263.825l.032-1.022-.106-1.017zm-115.62-77.055a108.54 108.54 0 0 1 3.414-.054c45.999 0 76.689 29.602 82.263 79.25l-3.104 82.174-68.047-63.831v-33.504h-30v33.504l-52.445 49.195c-5.472-16.388-9.217-32.799-9.217-56.612.002-53.268 30.279-88.642 77.136-90.122zm71.972 339.787c-3.491 33.259-22.949 52.333-53.385 52.332a71.16 71.16 0 0 1-2.257-.036c-30.269-.955-49.826-24.158-49.826-59.111 0-82.094-11.959-124.003-23.281-155.556l56.304-52.815 81.254 76.221-8.809 138.965z"/></svg>