<svg xmlns="http://www.w3.org/2000/svg" viewBox="0 0 512.124 512.124" xmlns:v="https://vecta.io/nano"><path d="M507.541 289.497c-19.933-19.749-46.038-36.307-78.313-45.178-28.344-7.791-51.202-15.737-72.147-25.581-28.49-13.383-53.035-26.376-70.786-38.068-4.271-2.813-10.039-1.264-12.326 3.31l-26.378 52.756-202.933-48.705c-.025-.006-.051-.006-.076-.012-.384-.088-.776-.152-1.178-.186-.079-.007-.157-.007-.236-.012-.167-.01-.332-.025-.502-.025-9.435 0-17.067-7.631-17.067-17.067 0-4.713-3.82-8.533-8.533-8.533s-8.533 3.82-8.533 8.533c0 14.174 8.625 26.319 20.916 31.481-4.006 7.441-7.997 15.729-11.73 24.711C6.657 253.542 0 280.793 0 307.262v17.067a25.6 25.6 0 0 0 25.6 25.6h443.733c23.563 0 42.667-19.104 42.667-42.667 0-.967-.168-1.892-.465-2.759 1.4-4.987.362-10.684-3.994-15.006zM285.004 200.07c17.534 10.788 39.697 22.313 64.819 34.114 21.942 10.313 45.673 18.563 74.881 26.591 27.595 7.585 50.241 21.409 67.829 37.954H235.675l22.073-44.14 2.078-4.154c.01-.02.016-.041.026-.061l25.152-50.304zm-52.527 66.888L39.594 219.923c1.971-4.079 3.958-7.924 5.921-11.501l1.291-2.322 192.948 46.308-2.736 5.471-4.541 9.079zM32.546 235.771l192.104 46.845-4.42 8.84-3.637 7.273H17.321c1.211-20.586 6.707-41.911 15.225-62.958zm436.787 97.091H25.6a8.53 8.53 0 0 1-8.533-8.533v-8.533h204.8.001 271.609c-3.515 9.942-12.998 17.066-24.144 17.066z"/></svg>