<svg xmlns="http://www.w3.org/2000/svg" viewBox="0 0 512.046 512.046" xmlns:v="https://vecta.io/nano"><path d="M509.413 285.858l-8.544-19.961c-.062-.145-.148-.274-.217-.415-1.405-3.563-3.674-7.096-7-10.449-13.832-13.941-43.274-21.605-92.647-21.5l-.924.003-3.676.027-2.544.036-2.151.038-4.179.1-.382.009-39.098-18.398.249-.415c2.425-4.041 1.114-9.283-2.927-11.708s-9.283-1.114-11.708 2.927l-1.135 1.893-19.083-8.98.719-1.199c2.425-4.041 1.114-9.283-2.927-11.708s-9.283-1.114-11.708 2.927l-1.606 2.676-19.083-8.979 1.19-1.983c2.425-4.041 1.114-9.283-2.927-11.708s-9.283-1.114-11.708 2.927l-2.076 3.46-19.083-8.979 1.66-2.766c2.425-4.041 1.114-9.283-2.927-11.708s-9.283-1.114-11.708 2.927l-2.546 4.244-22.752-10.706c-3.898-1.834-8.553-.475-10.851 3.169-.889 1.41-2.811 4.099-5.736 7.639-4.949 5.989-10.852 11.994-17.669 17.592-14.277 11.724-29.902 19.827-46.924 23.466-.767-.069-1.55-.045-2.331.102-12.548 2.353-25.802 2.319-39.784-.391-12.717-2.463-25.811-7.067-39.35-14.024l-3.187-1.678-1.336-.731-4.432-2.499a8.48 8.48 0 0 0-3.685-1.133c-6.901-1.739-13.609-11.559-13.609-20.661 0-4.713-3.82-8.533-8.533-8.533s-8.533 3.821-8.533 8.533c0 14.103 8.419 28.595 20.314 34.839l-1.83 9.678-7.143 37.229-.642 3.297-1.4 7.146c-.002.01-.005.019-.007.029L.455 293.437c-.109.322-.199.653-.269.992-.018.086-.026.171-.041.257-.037.213-.073.426-.095.644-.019.19-.024.378-.03.567-.003.091-.014.181-.014.273v.221.042 50.638c0 4.64 3.707 8.43 8.346 8.531l5.054.112 14.287.319 50.995 1.167 154.74 3.781 72.639 1.952 41.355 1.201c70.483 2.135 118.744-10.72 149.103-32.552 14.204-10.232 19.069-28.948 12.888-45.724zm-326.241-24.114l23.893 35.84-52.63-1.784-1.237-.05-16.272-.69-.937-.042 22.182-33.273h25.001zM35.261 207.037l1.023-5.404c10.532 5.386 20.794 9.485 30.778 12.407L46.64 244.675H28.038l.066-.34 7.157-37.298zm28.609 84.228l-29.85-1.87-14.811-1.007 5.477-26.643h21.952l19.783 29.671-.551-.032-2-.119zm58.168-6.087l-5.941 8.911-3.347-.165-8.469-.426-3.778-.194-11.866-.63-.897-.049-26.278-39.415 23.439-35.162c12.242 1.921 24.023 2.025 35.311.457l23.137 34.706-21.311 31.967zm270.278-34.48l1.987-.037 2.093-.031 1.624-.014c46.722-.379 72.993 6.198 83.157 16.443 3.221 3.247 4.093 6.151 3.771 8.721-10.292 9.508-45.696 16.696-99.856 20.248h0l7.224-45.33zm-209.775-60.617a146.95 146.95 0 0 0 19.994-19.91l2.583-3.218 14.776 6.953-14.229 23.714c-2.425 4.041-1.114 9.283 2.927 11.708s9.283 1.114 11.708-2.927l15.115-25.191 19.083 8.979-14.699 24.498c-2.425 4.041-1.114 9.283 2.927 11.708s9.283 1.114 11.708-2.927l15.585-25.975 19.083 8.979-15.169 25.282c-2.425 4.041-1.114 9.283 2.927 11.708s9.283 1.114 11.708-2.927l16.055-26.759 19.083 8.979-15.639 26.065c-2.425 4.041-1.114 9.283 2.927 11.708s9.283 1.114 11.708-2.927l16.526-27.542 36.37 17.114-7.944 49.848c-32.943 1.571-71.71 2.071-115.185 1.496l-24.553-.426-33.076-49.613c-1.583-2.374-4.247-3.8-7.1-3.8h-29.566l-20.091-30.136c15.957-4.909 30.807-13.251 44.458-24.461zm304.012 127.653c-27.112 19.497-71.692 31.372-138.617 29.344l-41.392-1.202-72.677-1.953-154.785-3.782-51.008-1.167-11.004-.246v-33.379l15.825 1.078 64.855 3.827 21.872 1.094.481.024 1.368.063 10.71.496 1.113.05c40.821 1.835 80.911 3.099 118.951 3.602l34.817.254h.158l5.364-.001.353-.001 5.205-.013.325-.001 31.372-.354.126-.002 4.151-.088 1.146-.025 3.691-.089 1.492-.038 3.423-.093 1.723-.049 3.213-.098 1.835-.059 3.063-.104 1.938-.07 2.915-.109 1.999-.08 2.813-.116 1.991-.088 2.755-.124 2.029-.098 2.632-.128 2.241-.118 4-.219 2.773-.159 1.832-.113 2.664-.166 1.87-.124 2.54-.171 1.86-.132 2.499-.181 1.782-.135 2.497-.195 1.719-.139 2.5-.21 1.63-.141 2.542-.228 1.5-.138 2.643-.254 1.326-.13 2.817-.29 1.076-.112 3.378-.371.421-.047 7.578-.918.295-.039 3.279-.437.744-.104 2.77-.393.867-.128 2.557-.386.935-.147 2.414-.388.947-.157 2.342-.4.901-.158 2.336-.425.81-.151 2.403-.465.648-.127 2.586-.532.382-.079c3.978-.845 7.72-1.743 11.222-2.695l.352-.098 2.18-.613.52-.153 1.928-.578.594-.185 1.776-.569.611-.203 1.682-.576.594-.21 1.624-.595.551-.207 1.615-.634.462-.185 1.678-.706.306-.131c1.975-.864 3.813-1.76 5.51-2.688l.133-.075c.503-.277.995-.557 1.473-.84.126-.074.245-.15.369-.225l1.15-.712.447-.294.678-.446.423.986c3.47 9.434.724 19.996-7.003 25.564z"/></svg>