<svg id="Layer_1" data-name="Layer 1" xmlns="http://www.w3.org/2000/svg" viewBox="0 0 457.33 340.16"><defs><style>.cls-1{fill:#ffcd05;}.cls-2{fill:#231f20;}</style></defs><title>CAT_Logo_Web</title><rect class="cls-1" width="457.33" height="340.16"/><path class="cls-2" d="M167.32,226.92c6.55-5.46,7.67-12.23,7.67-18.29V183.14h-35.6v34.59a9,9,0,0,1-8.95,9,8.67,8.67,0,0,1-8.62-9v-98a8.67,8.67,0,0,1,8.62-8.95,9,9,0,0,1,8.95,8.95v34.81H175V118.41h0c0-20-13-36.37-44.81-36.41h0c-32.62,0-44.95,16.5-44.95,36.45V220.79c0,19.78,15.7,34.75,35.79,34.74h11Z"/><polygon class="cls-2" points="307.67 230.94 307.67 118.48 283.11 118.48 283.11 85.34 372.03 85.34 372.03 118.48 347.33 118.48 347.33 255.33 336.8 255.33 307.67 230.94"/><path class="cls-2" d="M261.72,85.53H212.11L183.21,215.2,237,171.77l56.11,47Zm-34.29,77.92,9.6-49,9.53,49Z"/><polygon class="cls-2" points="323.6 255.57 237.01 183.03 147.28 255.57 323.6 255.57"/><path class="cls-2" d="M378.34,93.36a6.45,6.45,0,1,1,6.47,6.64A6.42,6.42,0,0,1,378.34,93.36Zm6.47,8a7.94,7.94,0,1,0-8.06-8A7.92,7.92,0,0,0,384.81,101.32ZM383.13,94h1.6l2.41,4h1.56l-2.61-4a2.39,2.39,0,0,0,2.37-2.52c0-1.81-1.07-2.61-3.23-2.61h-3.49V98h1.39Zm0-1.18V90H385c1,0,2,.21,2,1.34,0,1.41-1.06,1.49-2.23,1.49Z"/></svg>