<svg xmlns="http://www.w3.org/2000/svg" width="1000" height="671.62" xmlns:v="https://vecta.io/nano"><g transform="matrix(3.394659 0 0 3.394659 -20.16715 -25.345386)"><path d="M116.462 118.176l-.121-29.877 28.605-10.612-28.807-9.434-.604-29.436-17.475 23.75-28.585-8.812 16.593 24.931-16.196 24.977 28.213-9.35zm3.573 31.405h51.236l64.213-71.014L170.96 7.466h-50.741l60.347 70.996zM5.941 187.806c0-9.229 7.802-18.304 18.465-18.304 7.263 0 15.414 8.189 15.414 8.189l-8.831 5.138s-1.459-3.854-6.904-3.854c-5.536 0-8.793 4.545-8.831 8.67-.043 4.611 3.738 8.67 8.51 8.67 3.744 0 7.707-4.014 7.707-4.014l7.546 5.459s-5.647 6.904-15.093 6.904c-9.465 0-17.983-5.707-17.983-16.859z"/><path d="M61 169.969c-9.932 0-17.969 7.933-17.969 17.688S51.068 205.313 61 205.313s18-7.902 18-17.656-8.068-17.687-18-17.687zm0 8.844c4.966 0 9 3.967 9 8.844s-4.034 8.813-9 8.813-8.969-3.935-8.969-8.812 4.003-8.844 8.969-8.844zm24.75-8.344v33.063h8.656v-17.869l14.281 17.869h8.531V170.47h-8.687v19.322L94.406 170.47zm38.531 0l11.688 33.063h12.875l11.688-33.062h-9.469l-8.656 26.25-8.656-26.25zm42.469 0v33.063h26.594v-7.625h-17.937v-5.531h16.125v-6.75h-16.125v-5.281h17.938v-7.875zm107.178 0v33.063h26.594v-7.625h-17.937v-5.531h16.125v-6.75h-16.125v-5.281h17.938v-7.875zm-70.803.625v32.594h7.688v-12.844h4.406l6.75 12.844h9.906l-6.687-13.937c8.695-5.213 6.974-16.125-2.719-18.656h-19.344zm7.531 7.875h8.875c3.084 0 2.883 4.781 0 4.781h-8.875v-4.781z" fill-rule="evenodd"/><path d="M236.494 199.122c.341 2.044 8.398 5.904 16.349 5.904 7.302 0 13.17-3.506 13.17-10.465 0-8.558-9.991-10.539-9.991-10.539s-8.301-.117-8.515-3.974c-.101-1.815 2.428-2.838 4.655-2.838 3.647 0 7.72 3.633 7.72 3.633l5.79-6.244s-7.326-5.79-13.511-5.79c-5.906 0-14.305 3.868-14.305 11.921 0 6.852 9.723 10.004 9.723 10.004s10.259 1.093 10.259 4.301c0 2.184-3.72 2.838-5.904 2.838-5.301 0-9.764-4.655-9.764-4.655z"/></g></svg>