<svg xmlns="http://www.w3.org/2000/svg" viewBox="0 0 609.1 148.5" fill="#808386" xmlns:v="https://vecta.io/nano"><path d="M201.9 4.6C210 1.5 218.3 0 227.5 0c23.2 0 44 10.7 57.6 27.4 1.7 2.2 3 5.1 3 8.1 0 4.2-1.8 7.7-5 10l-.2.2c-2.1 1.6-4.8 2.5-7.6 2.5a12.93 12.93 0 0 1-10-4.7c-2.8-3.4-5.9-6.3-9.5-8.9-8-5.7-17.8-9.1-28.3-9.1-6.1 0-11.5 1-16.9 3-10.1 3.8-18.9 11-24.5 20.1-4.6 7.4-7.3 16.1-7.3 25.5 0 6.8 1.5 13.4 4.1 19.3 3.4 7.9 8.8 14.7 15.6 19.8 8 6 18.2 9.6 29.1 9.6 15.2 0 28.9-7.2 37.9-18.2 2.3-3 6-4.9 10-4.9a12.76 12.76 0 0 1 12.8 12.8c0 3.1-1 5.9-2.8 8-13.6 16.9-34.4 27.8-57.8 27.8-41 0-74.3-33.2-74.3-74.3 0-14.5 4.3-28 11.4-39.4 8.4-13.5 21.8-24.2 37.1-30m153.5 0c8.2-3.1 16.4-4.6 25.7-4.6 23.2 0 44 10.7 57.6 27.5 1.8 2.2 2.9 5 2.9 8.1 0 4.2-1.8 7.7-5 10l-.2.2c-2.1 1.6-4.8 2.5-7.7 2.5-4 0-7.6-1.8-9.9-4.8-2.8-3.4-5.9-6.4-9.5-8.9-8-5.8-17.8-9.1-28.3-9.1-6 0-11.5 1.1-16.8 3.1-10.1 3.8-18.9 10.9-24.6 20a48.16 48.16 0 0 0-7.3 25.6c0 6.8 1.6 13.3 4.1 19.1 3.4 7.9 8.8 14.7 15.5 19.8a48.24 48.24 0 0 0 29.1 9.7c15.2 0 29-7.2 37.9-18.2 2.3-2.9 6-4.8 10-4.8a12.76 12.76 0 0 1 12.8 12.8c0 3-1.1 5.9-2.8 8-13.6 17-34.4 27.8-57.8 27.8-41 0-74.2-33.2-74.2-74.1 0-14.6 4.2-28.1 11.4-39.6 8.5-13.5 21.9-24.3 37.1-30.1m121.7 116.1c13.6 16.9 34.4 27.8 57.8 27.8 41 0 74.1-33.2 74.1-74.3 0-14.4-4.1-27.9-11.3-39.4-2.3-3.6-6.3-6.1-10.9-6.1-7 0-12.7 5.7-12.7 12.8 0 2.5.9 5.2 2.1 7.2 4.6 7.4 7.3 16.1 7.3 25.5 0 6.8-1.5 13.4-4.1 19.3-3.4 7.9-8.8 14.7-15.5 19.8-8.2 6-18.2 9.6-29.1 9.6-15.2 0-29-7.2-37.9-18.2-6.8-8.4-10.8-18.9-10.8-30.6 0-16.2 8-30.7 20.3-39.5 8-5.7 17.8-9.1 28.4-9.1 6 0 11.5 1 16.8 3.1 1.4.5 2.9.7 4.4.7 7 0 12.8-5.7 12.8-12.8a12.86 12.86 0 0 0-8.3-12c-8-3-16.4-4.5-25.5-4.5-23.3 0-44.1 10.7-57.7 27.4-10.3 12.8-16.5 29-16.5 46.7-.1 17.7 6.1 33.8 16.3 46.6M48.5 4.6c-4.8 1.8-8.3 6.5-8.3 12.1 0 7 5.7 12.8 12.8 12.8a12.17 12.17 0 0 0 4.3-.8c5.3-2 10.8-3 16.9-3 10.5 0 20.5 3.6 28.5 9.3L29.5 93.4c-2.5-5.9-4-12.4-4-19.1 0-9.4 2.7-18.2 7.2-25.6 1.3-2 2.2-4.7 2.2-7.2 0-7-5.7-12.7-12.8-12.7-4.5 0-8.6 2.5-10.8 6C4.2 46.2 0 59.7 0 74.3c0 40.9 33.2 74.1 74.2 74.1 23.4 0 44.3-10.8 57.8-27.8 1.8-2.2 2.8-5 2.8-8A12.76 12.76 0 0 0 122 99.8c-4.1 0-7.7 1.9-10 4.9-8.9 11-22.7 18.2-37.9 18.2-10.9 0-20.9-3.7-29-9.7l84.5-67.6c3.1-2.4 5.1-5.8 5.1-10 0-3-1.2-5.9-3-8.1C118.3 10.7 97.5 0 74.2 0 65 0 56.7 1.5 48.5 4.6"/></svg>