<svg xmlns="http://www.w3.org/2000/svg" width="1000" height="356.39" viewBox="135.5 361.38 1000 356.39" xmlns:v="https://vecta.io/nano"><path d="M245.808 717.624c-29.796-1.184-54.173-9.337-73.235-24.48-3.638-2.893-12.306-11.566-15.214-15.225-7.73-9.719-12.985-19.178-16.49-29.673-10.786-32.306-5.235-74.699 15.878-121.224 18.077-39.832 45.969-79.337 94.633-134.051l28.653-31.597c.051 0-1.112 2.015-2.577 4.469-12.653 21.194-23.48 46.158-29.378 67.77-9.474 34.678-8.332 64.439 3.347 87.515 8.056 15.898 21.867 29.668 37.398 37.281 27.189 13.321 66.995 14.423 115.607 3.225 3.347-.775 169.194-44.801 368.55-97.837l362.52-96.367c.056.046-463.163 198.26-703.627 301.091-38.082 16.281-48.265 20.393-66.168 26.678-45.765 16.071-86.76 23.74-119.898 22.423z"/></svg>